HIERARCHY
ROOT Hips
{
  OFFSET 0.382225 96.6805 0.598322
  CHANNELS 6 Xposition Yposition Zposition Zrotation Xrotation Yrotation
  JOINT Spine
  {
    OFFSET 10.8089 -0.851416 0
    CHANNELS 3 Zrotation Xrotation Yrotation
    JOINT Spine1
    {
      OFFSET 18.8753 3.80116 0
      CHANNELS 3 Zrotation Xrotation Yrotation
      JOINT Spine2
      {
        OFFSET 13.4073 0.420477 0
        CHANNELS 3 Zrotation Xrotation Yrotation
        JOINT LeftShoulder
        {
          OFFSET 11.8837 -2.73209 -3.78198
          CHANNELS 3 Zrotation Xrotation Yrotation
          JOINT LeftArm
          {
            OFFSET 15.7849 0 -2.35849e-005
            CHANNELS 3 Zrotation Xrotation Yrotation
            JOINT LeftForeArm
            {
              OFFSET 30.3399 0 0
              CHANNELS 3 Zrotation Xrotation Yrotation
              JOINT LeftHand
              {
                OFFSET 26.9751 0 2.45913e-005
                CHANNELS 3 Zrotation Xrotation Yrotation
                End Site
                {
                  OFFSET 8 0 0
                }
              }
            }
          }
        }
        JOINT RightShoulder
        {
          OFFSET 11.8838 -2.7321 3.782
          CHANNELS 3 Zrotation Xrotation Yrotation
          JOINT RightArm
          {
            OFFSET -15.7848 0 -1.07056e-005
            CHANNELS 3 Zrotation Xrotation Yrotation
            JOINT RightForeArm
            {
              OFFSET -30.34 1.02096e-005 -2.53607e-005
              CHANNELS 3 Zrotation Xrotation Yrotation
              JOINT RightHand
              {
                OFFSET -26.9752 2.07668e-005 0
                CHANNELS 3 Zrotation Xrotation Yrotation
                End Site
                {
                  OFFSET -8 0 0
                }
              }
            }
          }
        }
        JOINT Neck
        {
          OFFSET 16.5588 -0.355318 0
          CHANNELS 3 Zrotation Xrotation Yrotation
          JOINT Head
          {
            OFFSET 9.28361 0.364157 0
            CHANNELS 3 Zrotation Xrotation Yrotation
            End Site
            {
              OFFSET 0 0 0
            }
          }
        }
      }
    }
  }
  JOINT LeftUpLeg
  {
    OFFSET -1.44883 -0.531424 -9.00581
    CHANNELS 3 Zrotation Xrotation Yrotation
    JOINT LeftLeg
    {
      OFFSET -42.572 0.0788889 -0.011964
      CHANNELS 3 Zrotation Xrotation Yrotation
      JOINT LeftFoot
      {
        OFFSET -40.1967 0 0
        CHANNELS 3 Zrotation Xrotation Yrotation
				JOINT LeftToe
        {
          OFFSET -10.4538 -16.5779 0.0801563
          CHANNELS 3 Zrotation Xrotation Yrotation
          End Site
          {
            OFFSET -1.0 -1.0 0.0
          }
        }
      }
    }
  }
  JOINT RightUpLeg
  {
    OFFSET -1.44865 -0.531427 9.0058
    CHANNELS 3 Zrotation Xrotation Yrotation
    JOINT RightLeg
    {
      OFFSET 42.5723 -3.24776e-005 0
      CHANNELS 3 Zrotation Xrotation Yrotation
      JOINT RightFoot
      {
        OFFSET 40.1968 0 -1.14003e-005
        CHANNELS 3 Zrotation Xrotation Yrotation
				JOINT RightToe
        {
          OFFSET 10.4538 16.5778 -0.0801573
          CHANNELS 3 Zrotation Xrotation Yrotation
          End Site
          {
            OFFSET -1.0 -1.0 0.0
          }
        }
      }
    }
  }
}
MOTION
Frames:	6
Frame Time:	0.0333333
-153.114 96.943 100.868 52.0485 -89.272 -39.0239 -10.2846 -2.75064 1.86394 17.0617 -0.153815 -0.285036 2.7794 1.93418e-006 1.65929e-005 -1.15732 17.0149 75.7928 -9.69446 -14.0653 3.45576 -17.2095 -13.5592 -0.541359 -38.6848 -68.8235 -43.3277 -177.813 12.7379 77.4317 3.89632 -30.5465 13.5037 -25.3579 -8.1681 -1.51337 -23.0777 -70.5292 -19.4926 -23.508 4.63459e-006 -5.90926e-006 21.2007 -3.37771 5.01263 -1.20603 29.0734 2.95837 -0.279049 -5.81788 2.64105 0.598083 -11.9646 0.0961539 -90 0 0 -179.723 28.6494 2.02227 -3.7293 -5.79901 2.39838 2.65488 -11.8415 -1.33375 -90 0 0
-153.115 96.9407 100.91 50.07 -89.2678 -41.0061 -10.2958 -2.74885 1.89301 17.0749 -0.154534 -0.286283 2.7794 1.93418e-006 1.65929e-005 -1.16385 16.9518 75.7916 -9.59767 -13.9656 3.41655 -17.2012 -13.5605 -0.537562 -38.8886 -68.9231 -43.5204 -177.818 12.7347 77.4464 3.90874 -30.5623 13.4889 -25.2788 -8.16383 -1.50747 -23.0067 -70.5767 -19.4373 -23.508 4.63459e-006 -5.90926e-006 21.1722 -3.4299 4.98797 -1.28317 29.0888 2.98349 -0.167279 -5.81547 2.65751 0.595665 -11.9852 0.108095 -90 0 0 -179.773 28.6958 2.02947 -3.65676 -5.79986 2.41289 2.63394 -11.904 -1.30704 -90 0 0
-153.115 96.9401 100.956 48.3198 -89.246 -42.7543 -10.2718 -2.73582 1.89829 17.0378 -0.154931 -0.286905 2.7794 1.93418e-006 1.65929e-005 -1.1595 16.9691 75.7815 -9.61913 -13.9945 3.42196 -17.1579 -13.5609 -0.517581 -39.1402 -68.8872 -43.7205 -177.818 12.7577 77.4441 3.92803 -30.5264 13.4797 -25.2641 -8.16179 -1.50466 -22.968 -70.6306 -19.4961 -23.508 4.63459e-006 -5.90926e-006 21.2087 -3.42806 4.95675 -1.31455 29.0992 2.99563 -0.111202 -5.81495 2.66393 0.59909 -12.0146 0.148354 -90 0 0 -179.771 28.723 2.03262 -3.65017 -5.8002 2.41143 2.65377 -11.9232 -1.31581 -90 0 0
-153.115 96.9392 101.002 48.6914 -89.2256 -42.3916 -10.2876 -2.76882 1.92074 17.0185 -0.155253 -0.28734 2.7794 1.93418e-006 1.65929e-005 -1.13726 17.0565 75.7278 -9.68878 -14.0869 3.4601 -17.1485 -13.5607 -0.51316 -38.9723 -68.8656 -43.5402 -177.823 12.7606 77.4586 3.976 -30.5795 13.5241 -25.2371 -8.16 -1.50219 -23.1949 -70.691 -19.6471 -23.508 4.63459e-006 -5.90926e-006 21.2073 -3.45131 4.9328 -1.34423 29.1621 3.01143 -0.11272 -5.81513 2.66233 0.630947 -12.092 0.125938 -90 0 0 -179.798 28.8202 2.03567 -3.65873 -5.80057 2.41343 2.69815 -12.003 -1.30287 -90 0 0
-153.115 96.9381 101.046 47.093 -89.2135 -43.9931 -10.2851 -2.76927 1.94092 17.0341 -0.15551 -0.287618 2.7794 1.93418e-006 1.65929e-005 -1.13991 16.9992 75.7074 -9.593 -14.0468 3.47003 -17.1918 -13.5602 -0.533282 -38.8445 -68.8837 -43.4982 -177.826 12.747 77.4741 4.00986 -30.6277 13.5712 -25.2739 -8.15845 -1.50005 -22.9956 -70.6125 -19.4726 -23.508 4.63459e-006 -5.90926e-006 21.1987 -3.3189 4.87117 -1.30441 29.1867 2.99672 -0.197667 -5.81586 2.64856 0.696638 -12.098 0.159836 -90 0 0 -179.812 28.6767 2.03312 -3.621 -5.80098 2.41679 2.6982 -11.8804 -1.32358 -90 0 0
-153.115 96.9375 101.091 47.4251 -89.2155 -43.6634 -10.3101 -2.76828 1.96285 17.0275 -0.155711 -0.287771 2.7794 1.93418e-006 1.65929e-005 -1.13742 16.9818 75.6835 -9.57483 -14.0609 3.46853 -17.2087 -13.5593 -0.541117 -38.9099 -68.8071 -43.5086 -177.834 12.7681 77.494 3.94876 -30.5533 13.5515 -25.3095 -8.15712 -1.49821 -23.0649 -70.6514 -19.5798 -23.508 4.63459e-006 -5.90926e-006 21.1429 -3.39462 4.89846 -1.38623 29.1537 3.01832 -0.111359 -5.81676 2.66103 0.694175 -12.0735 0.129926 -90 0 0 -179.845 28.6731 2.03295 -3.62204 -5.80142 2.41933 2.74036 -11.8534 -1.28061 -90 0 0
